<svg version="1.0" xmlns="http://www.w3.org/2000/svg" width="933.33" height="933.33" viewBox="0 0 700 700" preserveAspectRatio="xMidYMid meet"><g transform="matrix(.1 0 0 -.1 0 700)" fill="#000000" stroke="none"><path d="M2455 6994c-534-44-1046-247-1465-580-47-37-146-129-220-203-405-407-656-914-747-1508-26-172-23-557 5-742 122-785 560-1450 1232-1871 113-71 282-154 434-215l130-51 51-130c251-634 701-1124 1300-1418C3523 104 3867 18 4260 3c552-20 1098 136 1560 445 736 495 1181 1324 1180 2202-1 1105-680 2089-1715 2484l-109 42-36 95c-141 368-341 680-613 952-401 401-920 662-1483 747-135 20-467 34-589 24zm391-1469c113-18 205-46 311-95 101-47 242-142 306-208l48-49-113-43c-423-162-831-459-1118-814-159-197-319-476-410-714l-43-113-35 33c-104 100-225 304-276 466-216 686 220 1408 930 1536 105 19 287 19 400 1zm2512-2238c63-100 114-221 149-355 23-86 26-116 27-272 0-158-2-185-26-280-109-431-417-751-839-874-386-111-832-6-1125 267l-57 53 114 44c350 134 650 330 924 605 276 276 471 574 606 924l43 114 66-71c36-39 89-109 118-155z"/></g></svg>